<svg xmlns="http://www.w3.org/2000/svg" xmlns:xlink="http://www.w3.org/1999/xlink" width="32.214" height="30.364" viewBox="0 0 32.214 30.364">
  <defs>
    <clipPath id="clip-path">
      <rect id="Rectangle_237" data-name="Rectangle 237" width="32.214" height="30.364" fill="none"/>
    </clipPath>
  </defs>
  <g id="Group_513" data-name="Group 513" clip-path="url(#clip-path)">
    <path id="Path_317" data-name="Path 317" d="M23.731,27.874H3.747A3.747,3.747,0,0,1,0,24.127V14.092a3.747,3.747,0,0,1,3.747-3.747H23.731a3.747,3.747,0,0,1,3.747,3.747V24.127a3.747,3.747,0,0,1-3.747,3.747" transform="translate(0 -3.884)" fill="#c4000b"/>
    <path id="Path_318" data-name="Path 318" d="M27.836,7.3a.465.465,0,0,1-.331-.137L21.386,1.049a.469.469,0,1,1,.663-.663l6.118,6.119a.468.468,0,0,1-.331.8" transform="translate(-7.979 -0.093)" fill="#c4000b"/>
    <path id="Path_319" data-name="Path 319" d="M27.836,7.3a.465.465,0,0,1-.331-.137L21.386,1.049a.469.469,0,1,1,.663-.663l6.118,6.119a.468.468,0,0,1-.331.8Z" transform="translate(-7.979 -0.093)" fill="none" stroke="#c4000b" stroke-miterlimit="10" stroke-width="0.5"/>
    <path id="Path_320" data-name="Path 320" d="M31.515,7.3a.468.468,0,0,1-.331-.8L37.3.386a.468.468,0,0,1,.662.663L31.846,7.167a.465.465,0,0,1-.331.137" transform="translate(-11.658 -0.093)" fill="#c4000b"/>
    <path id="Path_321" data-name="Path 321" d="M31.515,7.3a.468.468,0,0,1-.331-.8L37.3.386a.468.468,0,0,1,.662.663L31.846,7.167A.465.465,0,0,1,31.515,7.3Z" transform="translate(-11.658 -0.093)" fill="none" stroke="#c4000b" stroke-miterlimit="10" stroke-width="0.5"/>
    <path id="Path_322" data-name="Path 322" d="M39.817,35.32H28.772A1.879,1.879,0,0,1,26.9,33.446V26.252a1.879,1.879,0,0,1,1.873-1.873H39.817a1.879,1.879,0,0,1,1.873,1.873v7.194a1.879,1.879,0,0,1-1.873,1.873" transform="translate(-10.101 -9.154)" fill="#c4000b"/>
    <rect id="Rectangle_235" data-name="Rectangle 235" width="14.791" height="10.941" rx="3" transform="translate(16.798 15.225)" fill="none" stroke="#fff" stroke-miterlimit="10" stroke-width="2"/>
    <path id="Path_323" data-name="Path 323" d="M26.847,41.513H23.336a1.253,1.253,0,0,1-1.249-1.249V32.6a1.253,1.253,0,0,1,1.249-1.249h3.511A1.253,1.253,0,0,1,28.1,32.6v7.663a1.253,1.253,0,0,1-1.249,1.249" transform="translate(-8.294 -11.772)" fill="#c4000b"/>
    <rect id="Rectangle_236" data-name="Rectangle 236" width="6.009" height="10.161" rx="2" transform="translate(13.794 19.579)" fill="none" stroke="#fff" stroke-miterlimit="10" stroke-width="2"/>
  </g>
</svg>
