<svg xmlns="http://www.w3.org/2000/svg" xmlns:xlink="http://www.w3.org/1999/xlink" width="27.5" height="27.5" viewBox="0 0 27.5 27.5">
  <defs>
    <clipPath id="clip-path">
      <rect id="Rectangle_243" data-name="Rectangle 243" width="27.5" height="27.5" fill="none"/>
    </clipPath>
  </defs>
  <g id="Group_528" data-name="Group 528" clip-path="url(#clip-path)">
    <path id="Path_339" data-name="Path 339" d="M13.75,0A13.75,13.75,0,1,0,27.5,13.751,13.765,13.765,0,0,0,13.75,0M23.209,6.91c-.5.046-1,.094-1.506.132a.4.4,0,0,0-.364.215c-.141.255-.307.5-.5.794a7.029,7.029,0,0,1-.655-.439c-.386-.325-.746-.68-1.13-1.007a.974.974,0,0,1-.338-.54A3.053,3.053,0,0,0,17.463,4.08c-.049-.032-.087-.08-.133-.116a.4.4,0,0,0-.145-.095c-.376-.079-.754-.149-1.144-.226a.718.718,0,0,0,.232.837,9.2,9.2,0,0,1,.815.789c.229.241.44.5.652.743a1.006,1.006,0,0,1-1.264.173,1.325,1.325,0,0,0-.325-.134.415.415,0,0,1-.362-.558c.016-.083-.009-.237-.062-.263-.313-.15-.639-.273-.972-.409-.094.4-.205.767-.258,1.139a.469.469,0,0,1-.471.466c-.207.024-.514.028-.587.153-.1.167-.025.442,0,.669.005.067.068.172.122.183.415.092.836.165,1.269.247.084-.459.164-.893.248-1.359a4.972,4.972,0,0,1,1.191.243,1.956,1.956,0,0,0,1.076.244.291.291,0,0,1,.344.211,4.38,4.38,0,0,0,1.23,1.725c.183.16.344.345.515.519.3.3.316.455.107.869-.244-.032-.493-.07-.743-.095a1.073,1.073,0,0,0-.516-.009c-1.1.54-2.292.954-2.969,2.1a2.612,2.612,0,0,1-.37.445,1.487,1.487,0,0,0-.385.746c-.093.45-.154.48-.6.411a.856.856,0,0,1-.212-.075c-.244-.11-.486-.23-.734-.333a.337.337,0,0,0-.233-.011c-.3.13-.59.276-.9.424l.259,1.091a.952.952,0,0,1,1.19-.531c-.018.311-.034.611-.05.9.7.27.717.258,1.008.633a.489.489,0,0,0,.64.183,1.769,1.769,0,0,1,.776-.164c.614.081,1.218.237,1.826.365a6.43,6.43,0,0,0,.91.189.823.823,0,0,1,.668.37,5.63,5.63,0,0,0,2.077,1.712c.358.18.692.4,1.05.613-.4.774-.812,1.517-1.182,2.278a1.291,1.291,0,0,1-.766.733,5.657,5.657,0,0,0-.845.393.6.6,0,0,0-.253.276c-.164.395-.295.8-.456,1.2a.705.705,0,0,1-.237.3l-.52.363a11.569,11.569,0,0,1-3.266.751,3.628,3.628,0,0,1,.182-1.1,13.767,13.767,0,0,0,.332-1.345.583.583,0,0,0,0-.27,9.789,9.789,0,0,0-1.2-3.136.947.947,0,0,1-.037-1.162,13.064,13.064,0,0,0,.615-1.258c-.82,0-1.232-.573-1.716-1.044a.785.785,0,0,0-.34-.188,11.024,11.024,0,0,0-1.377-.3.9.9,0,0,1-.828-.662,8.532,8.532,0,0,0-.406-.863l-.058.02v.738a.344.344,0,0,1-.444-.157c-.527-.73-1.069-1.448-1.6-2.177a.644.644,0,0,1-.112-.342c-.011-.555,0-1.111-.01-1.665a.8.8,0,0,0-.1-.375c-.352-.591-.734-1.167-1.07-1.768-.137-.244-.284-.258-.523-.216a15.654,15.654,0,0,1-2.68.349,11.732,11.732,0,0,1,2.614-3.4c.108-.013.214-.032.324-.04a3.633,3.633,0,0,0,1.914-.612.494.494,0,0,1,.473-.049,4.44,4.44,0,0,0,1.022.252,13.824,13.824,0,0,0,1.636-.075.437.437,0,0,0,.275-.167c.169-.231.3-.486.471-.716a.338.338,0,0,1,.255-.111,9.431,9.431,0,0,0,1,.092c.645-.031,1.289-.111,1.932-.183a.528.528,0,0,0,.273-.14c.247-.226.479-.468.72-.7a1.624,1.624,0,0,1,.28-.209,11.7,11.7,0,0,1,6.683,4.5M10.253,2.6a1.209,1.209,0,0,0,.72-.117c.138-.062.213-.026.279.1.091.179.2.35.314.554-.392.105-.776.179-1.139.314a1.076,1.076,0,0,1-1.162-.164,2.308,2.308,0,0,0-.279-.17l.105-.082A11.544,11.544,0,0,1,10.253,2.6m5.437-.362a4.963,4.963,0,0,1-1,.717A2.787,2.787,0,0,1,13.51,3.1c-.177,0-.352-.193-.576-.326l1.229-.695a11.8,11.8,0,0,1,1.526.154" transform="translate(0 0)" fill="#c4000b"/>
  </g>
</svg>
