<svg xmlns="http://www.w3.org/2000/svg" xmlns:xlink="http://www.w3.org/1999/xlink" width="29.493" height="42.98" viewBox="0 0 29.493 42.98"><defs><clipPath id="a"><rect width="14.906" height="40.365" fill="none"/></clipPath></defs><g transform="matrix(0.921, 0.391, -0.391, 0.921, 15.772, 0)" clip-path="url(#a)"><path d="M10.561,26.514V13.851A7.446,7.446,0,0,0,9.763,0V6.586a2.31,2.31,0,0,1-4.621,0V0a7.446,7.446,0,0,0-.991,13.758V26.607a7.446,7.446,0,0,0,.991,13.758V33.78a2.31,2.31,0,1,1,4.621,0v6.585a7.446,7.446,0,0,0,.8-13.851" transform="translate(0 0)" fill="#c4000b"/></g></svg>