<svg xmlns="http://www.w3.org/2000/svg" xmlns:xlink="http://www.w3.org/1999/xlink" width="24.985" height="23.755" viewBox="0 0 24.985 23.755"><defs><clipPath id="a"><rect width="24.985" height="23.755" fill="none"/></clipPath></defs><g transform="translate(0 0)"><g transform="translate(0 0)" clip-path="url(#a)"><path d="M18.593,15.827a9.3,9.3,0,1,1-9.3-9.3,9.3,9.3,0,0,1,9.3,9.3" transform="translate(0 -1.369)" fill="#c4000b"/><path d="M9.958,23.292a6.8,6.8,0,1,1,6.8-6.8,6.811,6.811,0,0,1-6.8,6.8m0-12.516a5.712,5.712,0,1,0,5.712,5.712,5.718,5.718,0,0,0-5.712-5.712" transform="translate(-0.661 -2.03)" fill="#fff"/><path d="M26.063,3.048l3.048,1.667L26.063,6.383,24.4,9.43,22.728,6.383,19.681,4.715l3.048-1.667L24.4,0Z" transform="translate(-4.126 0)" fill="#c4000b"/></g></g></svg>