<svg xmlns="http://www.w3.org/2000/svg" xmlns:xlink="http://www.w3.org/1999/xlink" width="34.707" height="41.893" viewBox="0 0 34.707 41.893"><defs><clipPath id="a"><rect width="18.221" height="37.854" fill="none"/></clipPath></defs><g transform="translate(18.927) rotate(30)" clip-path="url(#a)"><path d="M14.636,0H9.558V9.423a.448.448,0,1,1-.9,0V0H3.585A3.585,3.585,0,0,0,0,3.585V17.327A8.963,8.963,0,0,0,8.962,26.29h.3a8.963,8.963,0,0,0,8.962-8.962V3.585A3.585,3.585,0,0,0,14.636,0" transform="translate(0 0)" fill="#c4000b"/><path d="M18.415,54.161a.449.449,0,0,1-.433-.334c-1.015-3.855-2.2-4.351-5.608-4.883-1.282-.2-2.052-.721-2.29-1.548-.661-2.3,3.49-5.988,3.966-6.4a.448.448,0,0,1,.588.677c-1.629,1.415-4.073,4.153-3.692,5.476.133.462.66.768,1.567.909,3.615.565,5.2,1.224,6.336,5.541a.448.448,0,0,1-.32.547.444.444,0,0,1-.114.015" transform="translate(-4.03 -16.457)" fill="#c4000b"/><path d="M18.415,54.161a.449.449,0,0,1-.433-.334c-1.015-3.855-2.2-4.351-5.608-4.883-1.282-.2-2.052-.721-2.29-1.548-.661-2.3,3.49-5.988,3.966-6.4a.448.448,0,0,1,.588.677c-1.629,1.415-4.073,4.153-3.692,5.476.133.462.66.768,1.567.909,3.615.565,5.2,1.224,6.336,5.541a.448.448,0,0,1-.32.547A.444.444,0,0,1,18.415,54.161Z" transform="translate(-4.03 -16.457)" fill="none" stroke="#c4000b" stroke-miterlimit="10" stroke-width="0.5"/></g></svg>